<svg width="1366" height="435" viewBox="0 0 1366 435" fill="none" xmlns="http://www.w3.org/2000/svg">
<path fill-rule="evenodd" clip-rule="evenodd" d="M163.568 72.7128C168.555 81.864 174.21 93.1753 180.521 106.623C187.122 119.833 193.85 134.259 200.713 149.897C207.845 165.271 214.847 181.055 221.705 197.249C226.263 208.012 230.638 218.35 234.832 228.263C235.176 229.076 236.329 229.076 236.674 228.263C240.869 218.351 245.247 208.012 249.81 197.249C256.664 181.062 263.52 165.285 270.385 149.916L270.403 149.877C277.529 134.242 284.257 119.834 290.57 106.655L290.581 106.633L290.591 106.612C297.181 93.1501 302.971 81.8446 307.947 72.7128C308.945 70.8821 310.864 69.743 312.949 69.743H371.257C374.086 69.743 376.485 71.8192 376.892 74.6181C379.649 93.6077 382.119 114.902 384.314 138.495L384.772 142.888C387.038 164.892 388.943 187.852 390.488 211.767L390.844 216.5C392.611 240.15 394.137 263.921 395.416 287.811L396.021 297.3C397.401 319.274 398.571 340.1 399.527 359.775C399.685 363.023 397.094 365.743 393.842 365.743H331.423C328.345 365.743 325.824 363.296 325.733 360.219C324.916 332.593 323.819 302.499 322.448 269.935V269.934C321.46 246.33 320.108 222.581 318.395 198.687C318.32 197.643 316.896 197.403 316.482 198.364C314.642 202.639 312.744 207.043 310.789 211.577C307.778 218.558 304.768 225.539 301.759 232.521C298.758 239.484 295.755 246.448 292.752 253.412C286.998 267.384 281.38 280.81 275.898 293.691L275.89 293.711L275.882 293.73C270.415 306.318 265.764 317.115 261.948 326.127C261.056 328.233 258.991 329.601 256.704 329.601H211.941C209.655 329.601 207.591 328.235 206.698 326.131C202.873 317.115 198.229 306.316 192.756 293.732L192.747 293.712L192.738 293.691C187.264 280.83 181.526 267.422 175.507 253.468L175.488 253.425L175.47 253.381C169.732 239.447 163.858 225.512 157.848 211.577C155.894 207.046 153.997 202.645 152.158 198.373C151.745 197.412 150.32 197.652 150.246 198.696C148.535 222.588 147.182 246.334 146.188 269.935C144.818 302.498 143.728 332.592 142.903 360.22C142.811 363.297 140.291 365.743 137.213 365.743H74.7945C71.5416 365.743 68.9503 363.022 69.1092 359.773C70.2084 337.312 71.4357 313.345 72.8076 287.872L72.809 287.842L72.8111 287.811C74.4551 262.348 76.0914 237.02 77.7355 211.828L77.7397 211.771C79.6588 186.276 81.7147 161.872 83.9076 138.561L83.9104 138.531L83.9132 138.502C86.3814 114.896 88.9972 93.6005 91.7446 74.6202C92.1498 71.8204 94.5496 69.743 97.3786 69.743H158.567C160.652 69.743 162.57 70.8821 163.568 72.7128Z" fill="#BDB4E1" fill-opacity="0.03"/>
<path d="M180.521 106.623C174.21 93.1753 168.555 81.864 163.568 72.7128C162.57 70.8821 160.652 69.743 158.567 69.743H97.3786C94.5496 69.743 92.1498 71.8204 91.7446 74.6202C88.9972 93.6005 86.3814 114.896 83.9132 138.502L83.9104 138.531L83.9076 138.561C81.7147 161.872 79.6588 186.276 77.7397 211.771L77.7355 211.828C76.0914 237.02 74.4551 262.348 72.8111 287.811L72.809 287.842L72.8076 287.872C71.4357 313.345 70.2084 337.312 69.1092 359.773C68.9503 363.022 71.5416 365.743 74.7945 365.743H137.213C140.291 365.743 142.811 363.297 142.903 360.22C143.728 332.592 144.818 302.498 146.188 269.935C147.182 246.334 148.535 222.588 150.246 198.696C150.32 197.652 151.745 197.412 152.158 198.373C153.997 202.645 155.894 207.046 157.848 211.577C163.858 225.512 169.732 239.447 175.47 253.381L175.488 253.425L175.507 253.468C181.526 267.422 187.264 280.83 192.738 293.691L192.747 293.712L192.756 293.732C198.229 306.316 202.873 317.115 206.698 326.131C207.591 328.235 209.655 329.601 211.941 329.601H256.704C258.991 329.601 261.056 328.233 261.948 326.127C265.764 317.115 270.415 306.318 275.882 293.73L275.89 293.711L275.898 293.691C281.38 280.81 286.998 267.384 292.752 253.412C295.755 246.448 298.758 239.484 301.759 232.521C304.768 225.539 307.778 218.558 310.789 211.577C312.744 207.043 314.642 202.639 316.482 198.364C316.896 197.403 318.32 197.643 318.395 198.687C320.108 222.581 321.46 246.33 322.448 269.934V269.935C323.819 302.499 324.916 332.593 325.733 360.219C325.824 363.296 328.345 365.743 331.423 365.743H393.842C397.094 365.743 399.685 363.023 399.527 359.775C398.571 340.1 397.401 319.274 396.021 297.3L395.416 287.811C394.137 263.921 392.611 240.15 390.844 216.5L390.488 211.767C388.943 187.852 387.038 164.892 384.772 142.888L384.314 138.495C382.119 114.902 379.649 93.6077 376.892 74.6181C376.485 71.8192 374.086 69.743 371.257 69.743H312.949C310.864 69.743 308.945 70.8821 307.947 72.7128C302.971 81.8446 297.181 93.1501 290.591 106.612L290.581 106.633L290.57 106.655C284.257 119.834 277.529 134.242 270.403 149.877L270.385 149.916C263.52 165.285 256.664 181.062 249.81 197.249C245.247 208.012 240.869 218.351 236.674 228.263C236.329 229.076 235.176 229.076 234.832 228.263C230.638 218.35 226.263 208.012 221.705 197.249C214.847 181.055 207.845 165.271 200.713 149.897C193.85 134.259 187.122 119.833 180.521 106.623Z" stroke="#BAC7F7" stroke-opacity="0.32" stroke-width="2"/>
<path fill-rule="evenodd" clip-rule="evenodd" d="M163.568 72.7128C168.555 81.864 174.21 93.1753 180.521 106.623C187.122 119.833 193.85 134.259 200.713 149.897C207.845 165.271 214.847 181.055 221.705 197.249C226.263 208.012 230.638 218.35 234.832 228.263C235.176 229.076 236.329 229.076 236.674 228.263C240.869 218.351 245.247 208.012 249.81 197.249C256.664 181.062 263.52 165.285 270.385 149.916L270.403 149.877C277.529 134.242 284.257 119.834 290.57 106.655L290.581 106.633L290.591 106.612C297.181 93.1501 302.971 81.8446 307.947 72.7128C308.945 70.8821 310.864 69.743 312.949 69.743H371.257C374.086 69.743 376.485 71.8192 376.892 74.6181C379.649 93.6077 382.119 114.902 384.314 138.495L384.772 142.888C387.038 164.892 388.943 187.852 390.488 211.767L390.844 216.5C392.611 240.15 394.137 263.921 395.416 287.811L396.021 297.3C397.401 319.274 398.571 340.1 399.527 359.775C399.685 363.023 397.094 365.743 393.842 365.743H331.423C328.345 365.743 325.824 363.296 325.733 360.219C324.916 332.593 323.819 302.499 322.448 269.935V269.934C321.46 246.33 320.108 222.581 318.395 198.687C318.32 197.643 316.896 197.403 316.482 198.364C314.642 202.639 312.744 207.043 310.789 211.577C307.778 218.558 304.768 225.539 301.759 232.521C298.758 239.484 295.755 246.448 292.752 253.412C286.998 267.384 281.38 280.81 275.898 293.691L275.89 293.711L275.882 293.73C270.415 306.318 265.764 317.115 261.948 326.127C261.056 328.233 258.991 329.601 256.704 329.601H211.941C209.655 329.601 207.591 328.235 206.698 326.131C202.873 317.115 198.229 306.316 192.756 293.732L192.747 293.712L192.738 293.691C187.264 280.83 181.526 267.422 175.507 253.468L175.488 253.425L175.47 253.381C169.732 239.447 163.858 225.512 157.848 211.577C155.894 207.046 153.997 202.645 152.158 198.373C151.745 197.412 150.32 197.652 150.246 198.696C148.535 222.588 147.182 246.334 146.188 269.935C144.818 302.498 143.728 332.592 142.903 360.22C142.811 363.297 140.291 365.743 137.213 365.743H74.7945C71.5416 365.743 68.9503 363.022 69.1092 359.773C70.2084 337.312 71.4357 313.345 72.8076 287.872L72.809 287.842L72.8111 287.811C74.4551 262.348 76.0914 237.02 77.7355 211.828L77.7397 211.771C79.6588 186.276 81.7147 161.872 83.9076 138.561L83.9104 138.531L83.9132 138.502C86.3814 114.896 88.9972 93.6005 91.7446 74.6202C92.1498 71.8204 94.5496 69.743 97.3786 69.743H158.567C160.652 69.743 162.57 70.8821 163.568 72.7128Z" stroke="url(#paint0_radial_32_315)" stroke-width="2"/>
<path d="M156.188 75.0474C157.653 75.0474 159.001 75.8459 159.694 77.1367C164.342 85.8024 169.578 96.3414 175.398 108.753C181.966 121.907 188.67 136.293 195.519 151.913C202.633 167.259 209.618 183.015 216.458 199.183C221.923 212.099 227.127 224.402 232.069 236.093C233.446 239.35 238.061 239.35 239.438 236.093C244.381 224.402 249.586 212.099 255.057 199.183C261.898 183.015 268.738 167.259 275.587 151.913C282.701 136.293 289.413 121.907 295.709 108.753C301.78 96.3409 307.153 85.8016 311.82 77.1357C312.515 75.846 313.862 75.0474 315.327 75.0474H367.792C369.779 75.0474 371.466 76.5058 371.744 78.4736C374.291 96.5106 376.59 116.606 378.648 138.76C381.11 162.052 383.163 186.441 384.807 211.926C386.723 237.137 388.368 262.484 389.731 287.969C391.273 311.875 392.575 334.455 393.631 355.709C393.744 357.991 391.923 359.902 389.638 359.902H335.312C333.148 359.902 331.377 358.185 331.312 356.022C330.507 329.414 329.448 300.565 328.14 269.472C326.997 242.133 325.369 214.602 323.257 186.879C322.94 182.72 317.28 181.793 315.634 185.626C312.466 193.005 309.106 200.813 305.557 209.048C299.534 223.024 293.519 237 287.496 250.975C281.746 264.951 276.133 278.378 270.655 291.258C265.669 302.748 261.357 312.759 257.735 321.29C257.107 322.769 255.657 323.73 254.05 323.73H214.592C212.986 323.73 211.537 322.771 210.909 321.293C207.282 312.762 202.975 302.75 197.981 291.258C192.504 278.378 186.762 264.951 180.739 250.975C174.989 237 169.102 223.024 163.08 209.048C159.532 200.815 156.173 193.01 153.005 185.633C151.359 181.8 145.698 182.728 145.382 186.887C143.274 214.608 141.646 242.136 140.496 269.472C139.189 300.565 138.136 329.415 137.325 356.024C137.259 358.185 135.489 359.902 133.326 359.902H78.9997C76.7138 359.902 74.8928 357.99 75.0051 355.707C76.0507 334.454 77.21 311.875 78.4964 287.969C80.1404 262.484 81.7764 237.137 83.4204 211.926C85.3371 186.441 87.3902 162.052 89.5796 138.76C91.8939 116.606 94.3358 96.5116 96.8919 78.475C97.1709 76.5067 98.8578 75.0474 100.846 75.0474H156.188Z" fill="url(#paint1_linear_32_315)" fill-opacity="0.8"/>
<g filter="url(#filter0_di_32_315)">
<path d="M156.188 75.0474C157.653 75.0474 159.001 75.8459 159.694 77.1367C164.342 85.8024 169.578 96.3414 175.398 108.753C181.966 121.907 188.67 136.293 195.519 151.913C202.633 167.259 209.618 183.015 216.458 199.183C221.923 212.099 227.127 224.402 232.069 236.093C233.446 239.35 238.061 239.35 239.438 236.093C244.381 224.402 249.586 212.099 255.057 199.183C261.898 183.015 268.738 167.259 275.587 151.913C282.701 136.293 289.413 121.907 295.709 108.753C301.78 96.3409 307.153 85.8016 311.82 77.1357C312.515 75.846 313.862 75.0474 315.327 75.0474H367.792C369.779 75.0474 371.466 76.5058 371.744 78.4736C374.291 96.5106 376.59 116.606 378.648 138.76C381.11 162.052 383.163 186.441 384.807 211.926C386.723 237.137 388.368 262.484 389.731 287.969C391.273 311.875 392.575 334.455 393.631 355.709C393.744 357.991 391.923 359.902 389.638 359.902H335.312C333.148 359.902 331.377 358.185 331.312 356.022C330.507 329.414 329.448 300.565 328.14 269.472C326.997 242.133 325.369 214.602 323.257 186.879C322.94 182.72 317.28 181.793 315.634 185.626C312.466 193.005 309.106 200.813 305.557 209.048C299.534 223.024 293.519 237 287.496 250.975C281.746 264.951 276.133 278.378 270.655 291.258C265.669 302.748 261.357 312.759 257.735 321.29C257.107 322.769 255.657 323.73 254.05 323.73H214.592C212.986 323.73 211.537 322.771 210.909 321.293C207.282 312.762 202.975 302.75 197.981 291.258C192.504 278.378 186.762 264.951 180.739 250.975C174.989 237 169.102 223.024 163.08 209.048C159.532 200.815 156.173 193.01 153.005 185.633C151.359 181.8 145.698 182.728 145.382 186.887C143.274 214.608 141.646 242.136 140.496 269.472C139.189 300.565 138.136 329.415 137.325 356.024C137.259 358.185 135.489 359.902 133.326 359.902H78.9997C76.7138 359.902 74.8928 357.99 75.0051 355.707C76.0507 334.454 77.21 311.875 78.4964 287.969C80.1404 262.484 81.7764 237.137 83.4204 211.926C85.3371 186.441 87.3902 162.052 89.5796 138.76C91.8939 116.606 94.3358 96.5116 96.8919 78.475C97.1709 76.5067 98.8578 75.0474 100.846 75.0474H156.188Z" fill="url(#paint2_linear_32_315)" fill-opacity="0.8" shape-rendering="crispEdges"/>
</g>
<g filter="url(#filter1_f_32_315)">
<path d="M156.188 75.0474C157.653 75.0474 159.001 75.8459 159.693 77.1368C164.342 85.8024 169.578 96.3414 175.398 108.753C181.966 121.907 188.67 136.293 195.519 151.913C202.632 167.259 209.617 183.015 216.458 199.183C221.923 212.099 227.126 224.402 232.069 236.093C233.446 239.35 238.061 239.35 239.438 236.093C244.381 224.402 249.586 212.099 255.057 199.183C261.898 183.015 268.738 167.259 275.587 151.913C282.701 136.293 289.413 121.907 295.708 108.753C301.78 96.341 307.153 85.8016 311.82 77.1357C312.514 75.8461 313.862 75.0474 315.327 75.0474H367.792C369.779 75.0474 371.466 76.5058 371.744 78.4737C374.29 96.5106 376.589 116.606 378.648 138.76C381.11 162.052 383.163 186.441 384.807 211.926C386.723 237.137 388.367 262.484 389.731 287.969C391.273 311.875 392.575 334.455 393.631 355.709C393.744 357.991 391.923 359.902 389.638 359.902H335.311C333.148 359.902 331.377 358.185 331.312 356.022C330.507 329.414 329.447 300.565 328.14 269.472C326.997 242.133 325.369 214.602 323.257 186.879C322.94 182.72 317.28 181.793 315.634 185.626C312.465 193.005 309.106 200.813 305.556 209.048C299.534 223.024 293.519 237 287.496 250.975C281.746 264.951 276.132 278.378 270.655 291.258C265.669 302.748 261.356 312.759 257.735 321.29C257.107 322.769 255.657 323.73 254.05 323.73H214.592C212.986 323.73 211.537 322.771 210.908 321.293C207.282 312.762 202.975 302.75 197.981 291.258C192.504 278.378 186.761 264.951 180.739 250.975C174.989 237 169.102 223.024 163.08 209.048C159.532 200.816 156.173 193.01 153.005 185.633C151.359 181.8 145.698 182.728 145.382 186.887C143.274 214.608 141.646 242.136 140.496 269.472C139.189 300.565 138.136 329.415 137.325 356.024C137.259 358.185 135.488 359.902 133.326 359.902H78.9996C76.7137 359.902 74.8926 357.99 75.005 355.707C76.0505 334.454 77.2099 311.875 78.4962 287.969C80.1403 262.484 81.7763 237.137 83.4203 211.926C85.337 186.441 87.3901 162.052 89.5794 138.76C91.8938 116.606 94.3357 96.5117 96.8918 78.4751C97.1708 76.5068 98.8577 75.0474 100.846 75.0474H156.188Z" fill="url(#paint3_linear_32_315)" fill-opacity="0.8"/>
</g>
<path fill-rule="evenodd" clip-rule="evenodd" d="M573.317 69.743C592.576 69.743 610.823 72.864 628.017 79.1417C645.294 85.4494 660.423 94.9336 673.347 107.582C686.305 120.265 696.43 135.909 703.776 154.4L704.12 155.264C711.302 173.461 714.817 194.391 714.817 217.94C714.817 241.865 711.189 263.203 703.787 281.846C696.708 300.071 686.855 315.576 674.178 328.254L674.134 328.298C661.451 340.706 646.312 350.047 628.804 356.344C611.592 362.627 593.081 365.743 573.317 365.743C554.058 365.743 535.812 362.622 518.617 356.344C501.368 350.047 486.254 340.712 473.333 328.341L473.31 328.319L473.287 328.297C460.337 315.623 450.209 300.114 442.859 281.873L442.853 281.86L442.848 281.846C435.446 263.203 431.817 241.865 431.817 217.94C431.817 193.994 435.584 172.749 443.28 154.333C450.886 135.869 461.133 120.248 474.075 107.582L474.118 107.541C487.274 94.9333 502.373 85.4604 519.377 79.1521L519.391 79.1472L519.405 79.1417C536.581 72.8706 554.563 69.743 573.317 69.743ZM573.317 135.059C562.513 135.059 553.172 137.142 545.155 141.15L545.094 141.181L545.033 141.21C536.921 145.027 530 150.504 524.235 157.705C518.718 164.661 514.296 173.304 511.056 183.756C508.09 193.907 506.573 205.286 506.573 217.94C506.573 230.858 508.09 242.359 511.049 252.495C514.273 262.642 518.684 271.299 524.223 278.549C529.976 285.48 536.897 290.841 545.033 294.67C553.079 298.456 562.464 300.427 573.317 300.427C583.886 300.427 593.145 298.464 601.208 294.67L601.265 294.643C609.667 290.803 616.549 285.446 622.005 278.568L622.013 278.558L622.02 278.549C627.806 271.317 632.209 262.683 635.173 252.556L635.191 252.496L635.21 252.435C638.416 242.324 640.061 230.845 640.061 217.94C640.061 205.034 638.416 193.556 635.21 183.445L635.186 183.367L635.163 183.288C632.196 172.902 627.802 164.32 622.079 157.404L622.012 157.323L621.947 157.239C616.487 150.117 609.621 144.662 601.265 140.843L601.208 140.816C593.145 137.022 583.886 135.059 573.317 135.059Z" fill="#BDB4E1" fill-opacity="0.03"/>
<path fill-rule="evenodd" clip-rule="evenodd" d="M573.317 69.743C592.576 69.743 610.823 72.864 628.017 79.1417C645.294 85.4494 660.423 94.9336 673.347 107.582C686.305 120.265 696.43 135.909 703.776 154.4L704.12 155.264C711.302 173.461 714.817 194.391 714.817 217.94C714.817 241.865 711.189 263.203 703.787 281.846C696.708 300.071 686.855 315.576 674.178 328.254L674.134 328.298C661.451 340.706 646.312 350.047 628.804 356.344C611.592 362.627 593.081 365.743 573.317 365.743C554.058 365.743 535.812 362.622 518.617 356.344C501.368 350.047 486.254 340.712 473.333 328.341L473.31 328.319L473.287 328.297C460.337 315.623 450.209 300.114 442.859 281.873L442.853 281.86L442.848 281.846C435.446 263.203 431.817 241.865 431.817 217.94C431.817 193.994 435.584 172.749 443.28 154.333C450.886 135.869 461.133 120.248 474.075 107.582L474.118 107.541C487.274 94.9333 502.373 85.4604 519.377 79.1521L519.391 79.1472L519.405 79.1417C536.581 72.8706 554.563 69.743 573.317 69.743ZM573.317 135.059C562.513 135.059 553.172 137.142 545.155 141.15L545.094 141.181L545.033 141.21C536.921 145.027 530 150.504 524.235 157.705C518.718 164.661 514.296 173.304 511.056 183.756C508.09 193.907 506.573 205.286 506.573 217.94C506.573 230.858 508.09 242.359 511.049 252.495C514.273 262.642 518.684 271.299 524.223 278.549C529.976 285.48 536.897 290.841 545.033 294.67C553.079 298.456 562.464 300.427 573.317 300.427C583.886 300.427 593.145 298.464 601.208 294.67L601.265 294.643C609.667 290.803 616.549 285.446 622.005 278.568L622.013 278.558L622.02 278.549C627.806 271.317 632.209 262.683 635.173 252.556L635.191 252.496L635.21 252.435C638.416 242.324 640.061 230.845 640.061 217.94C640.061 205.034 638.416 193.556 635.21 183.445L635.186 183.367L635.163 183.288C632.196 172.902 627.802 164.32 622.079 157.404L622.012 157.323L621.947 157.239C616.487 150.117 609.621 144.662 601.265 140.843L601.208 140.816C593.145 137.022 583.886 135.059 573.317 135.059Z" stroke="#BAC7F7" stroke-opacity="0.32" stroke-width="2"/>
<path fill-rule="evenodd" clip-rule="evenodd" d="M573.317 69.743C592.576 69.743 610.823 72.864 628.017 79.1417C645.294 85.4494 660.423 94.9336 673.347 107.582C686.305 120.265 696.43 135.909 703.776 154.4L704.12 155.264C711.302 173.461 714.817 194.391 714.817 217.94C714.817 241.865 711.189 263.203 703.787 281.846C696.708 300.071 686.855 315.576 674.178 328.254L674.134 328.298C661.451 340.706 646.312 350.047 628.804 356.344C611.592 362.627 593.081 365.743 573.317 365.743C554.058 365.743 535.812 362.622 518.617 356.344C501.368 350.047 486.254 340.712 473.333 328.341L473.31 328.319L473.287 328.297C460.337 315.623 450.209 300.114 442.859 281.873L442.853 281.86L442.848 281.846C435.446 263.203 431.817 241.865 431.817 217.94C431.817 193.994 435.584 172.749 443.28 154.333C450.886 135.869 461.133 120.248 474.075 107.582L474.118 107.541C487.274 94.9333 502.373 85.4604 519.377 79.1521L519.391 79.1472L519.405 79.1417C536.581 72.8706 554.563 69.743 573.317 69.743ZM573.317 135.059C562.513 135.059 553.172 137.142 545.155 141.15L545.094 141.181L545.033 141.21C536.921 145.027 530 150.504 524.235 157.705C518.718 164.661 514.296 173.304 511.056 183.756C508.09 193.907 506.573 205.286 506.573 217.94C506.573 230.858 508.09 242.359 511.049 252.495C514.273 262.642 518.684 271.299 524.223 278.549C529.976 285.48 536.897 290.841 545.033 294.67C553.079 298.456 562.464 300.427 573.317 300.427C583.886 300.427 593.145 298.464 601.208 294.67L601.265 294.643C609.667 290.803 616.549 285.446 622.005 278.568L622.013 278.558L622.02 278.549C627.806 271.317 632.209 262.683 635.173 252.556L635.191 252.496L635.21 252.435C638.416 242.324 640.061 230.845 640.061 217.94C640.061 205.034 638.416 193.556 635.21 183.445L635.186 183.367L635.163 183.288C632.196 172.902 627.802 164.32 622.079 157.404L622.012 157.323L621.947 157.239C616.487 150.117 609.621 144.662 601.265 140.843L601.208 140.816C593.145 137.022 583.886 135.059 573.317 135.059Z" stroke="url(#paint4_radial_32_315)" stroke-width="2"/>
<path d="M500.884 217.672C500.884 231.047 502.459 243.111 505.608 253.864C509.019 264.617 513.743 273.927 519.78 281.794C526.078 289.4 533.689 295.301 542.612 299.497C551.534 303.693 561.769 305.791 573.317 305.791C584.601 305.791 594.706 303.693 603.628 299.497C612.814 295.301 620.424 289.4 626.461 281.794C632.759 273.927 637.483 264.617 640.632 253.864C644.044 243.111 645.75 231.047 645.75 217.672C645.75 204.296 644.044 192.233 640.632 181.48C637.483 170.465 632.759 161.155 626.461 153.549C620.424 145.681 612.814 139.649 603.628 135.453C594.706 131.257 584.601 129.159 573.317 129.159C561.769 129.159 551.534 131.387 542.612 135.846C533.689 140.042 526.078 146.074 519.78 153.942C513.743 161.548 509.019 170.858 505.608 181.873C502.459 192.626 500.884 204.558 500.884 217.672ZM709.128 217.672C709.128 241.013 705.586 261.6 698.5 279.434C691.676 297.005 682.228 311.824 670.156 323.887C658.085 335.689 643.65 344.606 626.854 350.638C610.321 356.67 592.475 359.686 573.317 359.686C554.684 359.686 537.101 356.67 520.567 350.638C504.033 344.606 489.6 335.689 477.265 323.887C464.93 311.824 455.22 297.005 448.134 279.434C441.048 261.6 437.505 241.013 437.505 217.672C437.505 194.33 441.18 173.874 448.528 156.303C455.876 138.469 465.717 123.52 478.052 111.456C490.649 99.3921 505.083 90.3442 521.354 84.3119C537.888 78.2796 555.209 75.2639 573.317 75.2639C591.95 75.2639 609.533 78.2796 626.067 84.3119C642.6 90.3442 657.034 99.3921 669.369 111.456C681.704 123.52 691.414 138.469 698.5 156.303C705.586 173.874 709.128 194.33 709.128 217.672Z" fill="url(#paint5_linear_32_315)" fill-opacity="0.8"/>
<g filter="url(#filter2_di_32_315)">
<path d="M500.884 217.672C500.884 231.047 502.459 243.111 505.608 253.864C509.019 264.617 513.743 273.927 519.78 281.794C526.078 289.4 533.689 295.301 542.612 299.497C551.534 303.693 561.769 305.791 573.317 305.791C584.601 305.791 594.706 303.693 603.628 299.497C612.814 295.301 620.424 289.4 626.461 281.794C632.759 273.927 637.483 264.617 640.632 253.864C644.044 243.111 645.75 231.047 645.75 217.672C645.75 204.296 644.044 192.233 640.632 181.48C637.483 170.465 632.759 161.155 626.461 153.549C620.424 145.681 612.814 139.649 603.628 135.453C594.706 131.257 584.601 129.159 573.317 129.159C561.769 129.159 551.534 131.387 542.612 135.846C533.689 140.042 526.078 146.074 519.78 153.942C513.743 161.548 509.019 170.858 505.608 181.873C502.459 192.626 500.884 204.558 500.884 217.672ZM709.128 217.672C709.128 241.013 705.586 261.6 698.5 279.434C691.676 297.005 682.228 311.824 670.156 323.887C658.085 335.689 643.65 344.606 626.854 350.638C610.321 356.67 592.475 359.686 573.317 359.686C554.684 359.686 537.101 356.67 520.567 350.638C504.033 344.606 489.6 335.689 477.265 323.887C464.93 311.824 455.22 297.005 448.134 279.434C441.048 261.6 437.505 241.013 437.505 217.672C437.505 194.33 441.18 173.874 448.528 156.303C455.876 138.469 465.717 123.52 478.052 111.456C490.649 99.3921 505.083 90.3442 521.354 84.3119C537.888 78.2796 555.209 75.2639 573.317 75.2639C591.95 75.2639 609.533 78.2796 626.067 84.3119C642.6 90.3442 657.034 99.3921 669.369 111.456C681.704 123.52 691.414 138.469 698.5 156.303C705.586 173.874 709.128 194.33 709.128 217.672Z" fill="url(#paint6_linear_32_315)" fill-opacity="0.8" shape-rendering="crispEdges"/>
</g>
<g filter="url(#filter3_f_32_315)">
<path d="M500.884 217.672C500.884 231.047 502.459 243.111 505.608 253.864C509.019 264.617 513.743 273.927 519.78 281.794C526.078 289.4 533.689 295.301 542.612 299.497C551.534 303.693 561.769 305.791 573.317 305.791C584.601 305.791 594.706 303.693 603.628 299.497C612.814 295.301 620.424 289.4 626.461 281.794C632.759 273.927 637.483 264.617 640.632 253.864C644.044 243.111 645.75 231.047 645.75 217.672C645.75 204.296 644.044 192.233 640.632 181.48C637.483 170.465 632.759 161.155 626.461 153.549C620.424 145.681 612.814 139.649 603.628 135.453C594.706 131.257 584.601 129.159 573.317 129.159C561.769 129.159 551.534 131.387 542.612 135.846C533.689 140.042 526.078 146.074 519.78 153.942C513.743 161.548 509.019 170.858 505.608 181.873C502.459 192.626 500.884 204.558 500.884 217.672ZM709.128 217.672C709.128 241.013 705.586 261.6 698.5 279.434C691.676 297.005 682.228 311.824 670.156 323.887C658.085 335.689 643.65 344.606 626.854 350.638C610.321 356.67 592.475 359.686 573.317 359.686C554.684 359.686 537.101 356.67 520.567 350.638C504.033 344.606 489.6 335.689 477.265 323.887C464.93 311.824 455.22 297.005 448.134 279.434C441.048 261.6 437.505 241.013 437.505 217.672C437.505 194.33 441.18 173.874 448.528 156.303C455.876 138.469 465.717 123.52 478.052 111.456C490.649 99.3921 505.083 90.3442 521.354 84.3119C537.888 78.2796 555.209 75.2639 573.317 75.2639C591.95 75.2639 609.533 78.2796 626.067 84.3119C642.6 90.3442 657.034 99.3921 669.369 111.456C681.704 123.52 691.414 138.469 698.5 156.303C705.586 173.874 709.128 194.33 709.128 217.672Z" fill="url(#paint7_linear_32_315)" fill-opacity="0.8"/>
</g>
<path fill-rule="evenodd" clip-rule="evenodd" d="M830.698 73.6363C836.167 90.0533 842.043 107.835 848.33 126.981C851.61 136.419 854.891 145.858 858.171 155.296C861.45 164.728 864.728 174.16 868.006 183.592C874.841 202.47 881.402 220.528 887.69 237.764C891.608 248.502 895.359 258.315 898.944 267.208C899.281 268.045 900.464 268.039 900.793 267.198C904.272 258.301 907.969 248.49 911.882 237.764L911.896 237.727L911.91 237.69C918.455 220.496 925.002 202.478 931.552 183.634L931.564 183.599L931.576 183.565C938.399 164.718 944.949 145.872 951.227 127.027L951.235 127.004L951.243 126.981C957.804 107.828 963.818 90.0459 969.284 73.6356C970.059 71.311 972.234 69.743 974.684 69.743H1042.81C1046.72 69.743 1049.47 73.6081 1048.18 77.3079C1041.88 95.3955 1034.63 115.945 1026.42 138.954C1018.19 162.012 1009.14 186.16 999.272 211.397C989.402 236.64 978.983 262.156 968.018 287.942C957.048 313.741 945.939 338.587 934.688 362.476C933.749 364.47 931.743 365.743 929.539 365.743H867.982C865.777 365.743 863.771 364.47 862.832 362.476C851.582 338.587 840.472 313.741 829.502 287.942C818.537 262.156 808.119 236.64 798.248 211.397C788.387 186.176 779.208 162.047 770.713 139.01L770.702 138.982L770.693 138.954C762.475 115.927 755.347 95.3522 749.312 77.2343C748.085 73.5485 750.828 69.743 754.713 69.743H825.299C827.749 69.743 829.924 71.3114 830.698 73.6363Z" fill="#BDB4E1" fill-opacity="0.03"/>
<path fill-rule="evenodd" clip-rule="evenodd" d="M830.698 73.6363C836.167 90.0533 842.043 107.835 848.33 126.981C851.61 136.419 854.891 145.858 858.171 155.296C861.45 164.728 864.728 174.16 868.006 183.592C874.841 202.47 881.402 220.528 887.69 237.764C891.608 248.502 895.359 258.315 898.944 267.208C899.281 268.045 900.464 268.039 900.793 267.198C904.272 258.301 907.969 248.49 911.882 237.764L911.896 237.727L911.91 237.69C918.455 220.496 925.002 202.478 931.552 183.634L931.564 183.599L931.576 183.565C938.399 164.718 944.949 145.872 951.227 127.027L951.235 127.004L951.243 126.981C957.804 107.828 963.818 90.0459 969.284 73.6356C970.059 71.311 972.234 69.743 974.684 69.743H1042.81C1046.72 69.743 1049.47 73.6081 1048.18 77.3079C1041.88 95.3955 1034.63 115.945 1026.42 138.954C1018.19 162.012 1009.14 186.16 999.272 211.397C989.402 236.64 978.983 262.156 968.018 287.942C957.048 313.741 945.939 338.587 934.688 362.476C933.749 364.47 931.743 365.743 929.539 365.743H867.982C865.777 365.743 863.771 364.47 862.832 362.476C851.582 338.587 840.472 313.741 829.502 287.942C818.537 262.156 808.119 236.64 798.248 211.397C788.387 186.176 779.208 162.047 770.713 139.01L770.702 138.982L770.693 138.954C762.475 115.927 755.347 95.3522 749.312 77.2343C748.085 73.5485 750.828 69.743 754.713 69.743H825.299C827.749 69.743 829.924 71.3114 830.698 73.6363Z" stroke="#BAC7F7" stroke-opacity="0.32" stroke-width="2"/>
<path fill-rule="evenodd" clip-rule="evenodd" d="M830.698 73.6363C836.167 90.0533 842.043 107.835 848.33 126.981C851.61 136.419 854.891 145.858 858.171 155.296C861.45 164.728 864.728 174.16 868.006 183.592C874.841 202.47 881.402 220.528 887.69 237.764C891.608 248.502 895.359 258.315 898.944 267.208C899.281 268.045 900.464 268.039 900.793 267.198C904.272 258.301 907.969 248.49 911.882 237.764L911.896 237.727L911.91 237.69C918.455 220.496 925.002 202.478 931.552 183.634L931.564 183.599L931.576 183.565C938.399 164.718 944.949 145.872 951.227 127.027L951.235 127.004L951.243 126.981C957.804 107.828 963.818 90.0459 969.284 73.6356C970.059 71.311 972.234 69.743 974.684 69.743H1042.81C1046.72 69.743 1049.47 73.6081 1048.18 77.3079C1041.88 95.3955 1034.63 115.945 1026.42 138.954C1018.19 162.012 1009.14 186.16 999.272 211.397C989.402 236.64 978.983 262.156 968.018 287.942C957.048 313.741 945.939 338.587 934.688 362.476C933.749 364.47 931.743 365.743 929.539 365.743H867.982C865.777 365.743 863.771 364.47 862.832 362.476C851.582 338.587 840.472 313.741 829.502 287.942C818.537 262.156 808.119 236.64 798.248 211.397C788.387 186.176 779.208 162.047 770.713 139.01L770.702 138.982L770.693 138.954C762.475 115.927 755.347 95.3522 749.312 77.2343C748.085 73.5485 750.828 69.743 754.713 69.743H825.299C827.749 69.743 829.924 71.3114 830.698 73.6363Z" stroke="url(#paint8_radial_32_315)" stroke-width="2"/>
<path d="M870.518 359.723C868.969 359.723 867.559 358.829 866.901 357.427C856.052 334.321 845.331 310.318 834.738 285.417C823.795 259.691 813.398 234.238 803.548 209.059C793.699 183.88 784.533 159.796 776.052 136.806C768.631 116.02 762.104 97.2475 756.472 80.4886C755.603 77.9008 757.53 75.2268 760.261 75.2268H822.416C824.138 75.2268 825.666 76.328 826.21 77.9617C831.423 93.6183 837.001 110.496 842.946 128.596C849.513 147.48 856.079 166.364 862.645 185.248C869.485 204.133 876.051 222.196 882.344 239.438C887.246 252.869 891.899 264.889 896.303 275.497C897.657 278.76 902.231 278.72 903.541 275.44C907.772 264.846 912.335 252.845 917.228 239.438C923.794 222.196 930.361 204.133 936.927 185.248C943.767 166.364 950.333 147.48 956.626 128.596C962.829 110.496 968.544 93.6179 973.771 77.9612C974.316 76.328 975.845 75.2268 977.567 75.2268H1037.18C1039.93 75.2268 1041.86 77.9424 1040.95 80.5413C1035.1 97.2868 1028.47 116.042 1021.06 136.806C1012.85 159.796 1003.82 183.88 993.972 209.059C984.122 234.238 973.725 259.691 962.782 285.417C952.189 310.318 941.469 334.321 930.62 357.427C929.961 358.829 928.551 359.723 927.003 359.723H870.518Z" fill="url(#paint9_linear_32_315)" fill-opacity="0.8"/>
<g filter="url(#filter4_di_32_315)">
<path d="M870.518 359.723C868.969 359.723 867.559 358.829 866.901 357.427C856.052 334.321 845.331 310.318 834.738 285.417C823.795 259.691 813.398 234.238 803.548 209.059C793.699 183.88 784.533 159.796 776.052 136.806C768.631 116.02 762.104 97.2475 756.472 80.4886C755.603 77.9008 757.53 75.2268 760.261 75.2268H822.416C824.138 75.2268 825.666 76.328 826.21 77.9617C831.423 93.6183 837.001 110.496 842.946 128.596C849.513 147.48 856.079 166.364 862.645 185.248C869.485 204.133 876.051 222.196 882.344 239.438C887.246 252.869 891.899 264.889 896.303 275.497C897.657 278.76 902.231 278.72 903.541 275.44C907.772 264.846 912.335 252.845 917.228 239.438C923.794 222.196 930.361 204.133 936.927 185.248C943.767 166.364 950.333 147.48 956.626 128.596C962.829 110.496 968.544 93.6179 973.771 77.9612C974.316 76.328 975.845 75.2268 977.567 75.2268H1037.18C1039.93 75.2268 1041.86 77.9424 1040.95 80.5413C1035.1 97.2868 1028.47 116.042 1021.06 136.806C1012.85 159.796 1003.82 183.88 993.972 209.059C984.122 234.238 973.725 259.691 962.782 285.417C952.189 310.318 941.469 334.321 930.62 357.427C929.961 358.829 928.551 359.723 927.003 359.723H870.518Z" fill="url(#paint10_linear_32_315)" fill-opacity="0.8" shape-rendering="crispEdges"/>
</g>
<g filter="url(#filter5_f_32_315)">
<path d="M870.518 359.723C868.969 359.723 867.559 358.829 866.901 357.427C856.052 334.321 845.331 310.318 834.738 285.417C823.795 259.691 813.398 234.238 803.548 209.059C793.699 183.88 784.533 159.796 776.052 136.806C768.631 116.02 762.104 97.2475 756.472 80.4886C755.603 77.9008 757.53 75.2268 760.261 75.2268H822.416C824.138 75.2268 825.666 76.328 826.21 77.9617C831.423 93.6183 837.001 110.496 842.946 128.596C849.513 147.48 856.079 166.364 862.645 185.248C869.485 204.133 876.051 222.196 882.344 239.438C887.246 252.869 891.899 264.889 896.303 275.497C897.657 278.76 902.231 278.72 903.541 275.44C907.772 264.846 912.335 252.845 917.228 239.438C923.794 222.196 930.361 204.133 936.927 185.248C943.767 166.364 950.333 147.48 956.626 128.596C962.829 110.496 968.544 93.6179 973.771 77.9612C974.316 76.328 975.845 75.2268 977.567 75.2268H1037.18C1039.93 75.2268 1041.86 77.9424 1040.95 80.5413C1035.1 97.2868 1028.47 116.042 1021.06 136.806C1012.85 159.796 1003.82 183.88 993.972 209.059C984.122 234.238 973.725 259.691 962.782 285.417C952.189 310.318 941.469 334.321 930.62 357.427C929.961 358.829 928.551 359.723 927.003 359.723H870.518Z" fill="url(#paint11_linear_32_315)" fill-opacity="0.8"/>
</g>
<path d="M1295.82 357.743C1295.82 362.161 1292.24 365.743 1287.82 365.743H1090.82C1086.4 365.743 1082.82 362.161 1082.82 357.743V308.557C1082.82 304.138 1086.4 300.557 1090.82 300.557H1287.82C1292.24 300.557 1295.82 304.138 1295.82 308.557V357.743Z" fill="#BDB4E1" fill-opacity="0.03"/>
<path d="M1272.01 235.354C1272.01 239.772 1268.43 243.354 1264.01 243.354H1090.82C1086.4 243.354 1082.82 239.772 1082.82 235.354V187.4C1082.82 182.982 1086.4 179.4 1090.82 179.4H1264.01C1268.43 179.4 1272.01 182.982 1272.01 187.4V235.354Z" fill="#BDB4E1" fill-opacity="0.03"/>
<path d="M1286.38 126.929C1286.38 131.348 1282.8 134.929 1278.38 134.929H1090.82C1086.4 134.929 1082.82 131.348 1082.82 126.929V77.7429C1082.82 73.3247 1086.4 69.743 1090.82 69.743H1278.38C1282.8 69.743 1286.38 73.3247 1286.38 77.743V126.929Z" fill="#BDB4E1" fill-opacity="0.03"/>
<path d="M1295.82 357.743C1295.82 362.161 1292.24 365.743 1287.82 365.743H1090.82C1086.4 365.743 1082.82 362.161 1082.82 357.743V308.557C1082.82 304.138 1086.4 300.557 1090.82 300.557H1287.82C1292.24 300.557 1295.82 304.138 1295.82 308.557V357.743Z" stroke="#BAC7F7" stroke-opacity="0.32" stroke-width="2"/>
<path d="M1272.01 235.354C1272.01 239.772 1268.43 243.354 1264.01 243.354H1090.82C1086.4 243.354 1082.82 239.772 1082.82 235.354V187.4C1082.82 182.982 1086.4 179.4 1090.82 179.4H1264.01C1268.43 179.4 1272.01 182.982 1272.01 187.4V235.354Z" stroke="#BAC7F7" stroke-opacity="0.32" stroke-width="2"/>
<path d="M1286.38 126.929C1286.38 131.348 1282.8 134.929 1278.38 134.929H1090.82C1086.4 134.929 1082.82 131.348 1082.82 126.929V77.7429C1082.82 73.3247 1086.4 69.743 1090.82 69.743H1278.38C1282.8 69.743 1286.38 73.3247 1286.38 77.743V126.929Z" stroke="#BAC7F7" stroke-opacity="0.32" stroke-width="2"/>
<path d="M1295.82 357.743C1295.82 362.161 1292.24 365.743 1287.82 365.743H1090.82C1086.4 365.743 1082.82 362.161 1082.82 357.743V308.557C1082.82 304.138 1086.4 300.557 1090.82 300.557H1287.82C1292.24 300.557 1295.82 304.138 1295.82 308.557V357.743Z" stroke="url(#paint12_radial_32_315)" stroke-width="2"/>
<path d="M1272.01 235.354C1272.01 239.772 1268.43 243.354 1264.01 243.354H1090.82C1086.4 243.354 1082.82 239.772 1082.82 235.354V187.4C1082.82 182.982 1086.4 179.4 1090.82 179.4H1264.01C1268.43 179.4 1272.01 182.982 1272.01 187.4V235.354Z" stroke="url(#paint13_radial_32_315)" stroke-width="2"/>
<path d="M1286.38 126.929C1286.38 131.348 1282.8 134.929 1278.38 134.929H1090.82C1086.4 134.929 1082.82 131.348 1082.82 126.929V77.7429C1082.82 73.3247 1086.4 69.743 1090.82 69.743H1278.38C1282.8 69.743 1286.38 73.3247 1286.38 77.743V126.929Z" stroke="url(#paint14_radial_32_315)" stroke-width="2"/>
<path d="M1286.12 306.085C1288.33 306.085 1290.12 307.876 1290.12 310.085V355.95C1290.12 358.159 1288.33 359.95 1286.12 359.95H1092.52C1090.31 359.95 1088.52 358.159 1088.52 355.95V310.085C1088.52 307.876 1090.31 306.085 1092.52 306.085H1286.12Z" fill="url(#paint15_linear_32_315)" fill-opacity="0.8"/>
<path d="M1266.31 233.417C1266.31 235.626 1264.52 237.417 1262.31 237.417H1092.52C1090.31 237.417 1088.52 235.626 1088.52 233.417V188.786C1088.52 186.577 1090.31 184.786 1092.52 184.786H1262.31C1264.52 184.786 1266.31 186.577 1266.31 188.786V233.417Z" fill="url(#paint16_linear_32_315)" fill-opacity="0.8"/>
<path d="M1280.68 124.865C1280.68 127.074 1278.89 128.865 1276.68 128.865H1092.52C1090.31 128.865 1088.52 127.074 1088.52 124.865V79C1088.52 76.7909 1090.31 75 1092.52 75H1276.68C1278.89 75 1280.68 76.7909 1280.68 79V124.865Z" fill="url(#paint17_linear_32_315)" fill-opacity="0.8"/>
<g filter="url(#filter6_di_32_315)">
<path d="M1286.12 306.085C1288.33 306.085 1290.12 307.876 1290.12 310.085V355.95C1290.12 358.159 1288.33 359.95 1286.12 359.95H1092.52C1090.31 359.95 1088.52 358.159 1088.52 355.95V310.085C1088.52 307.876 1090.31 306.085 1092.52 306.085H1286.12Z" fill="url(#paint18_linear_32_315)" fill-opacity="0.8" shape-rendering="crispEdges"/>
<path d="M1266.31 233.417C1266.31 235.626 1264.52 237.417 1262.31 237.417H1092.52C1090.31 237.417 1088.52 235.626 1088.52 233.417V188.786C1088.52 186.577 1090.31 184.786 1092.52 184.786H1262.31C1264.52 184.786 1266.31 186.577 1266.31 188.786V233.417Z" fill="url(#paint19_linear_32_315)" fill-opacity="0.8" shape-rendering="crispEdges"/>
<path d="M1280.68 124.865C1280.68 127.074 1278.89 128.865 1276.68 128.865H1092.52C1090.31 128.865 1088.52 127.074 1088.52 124.865V79C1088.52 76.7909 1090.31 75 1092.52 75H1276.68C1278.89 75 1280.68 76.7909 1280.68 79V124.865Z" fill="url(#paint20_linear_32_315)" fill-opacity="0.8" shape-rendering="crispEdges"/>
</g>
<g filter="url(#filter7_f_32_315)">
<path d="M1286.12 306.085C1288.33 306.085 1290.12 307.876 1290.12 310.085V355.95C1290.12 358.159 1288.33 359.95 1286.12 359.95H1092.52C1090.31 359.95 1088.52 358.159 1088.52 355.95V310.085C1088.52 307.876 1090.31 306.085 1092.52 306.085H1286.12Z" fill="url(#paint21_linear_32_315)" fill-opacity="0.8"/>
<path d="M1266.31 233.417C1266.31 235.626 1264.52 237.417 1262.31 237.417H1092.52C1090.31 237.417 1088.52 235.626 1088.52 233.417V188.786C1088.52 186.577 1090.31 184.786 1092.52 184.786H1262.31C1264.52 184.786 1266.31 186.577 1266.31 188.786V233.417Z" fill="url(#paint22_linear_32_315)" fill-opacity="0.8"/>
<path d="M1280.68 124.865C1280.68 127.074 1278.89 128.865 1276.68 128.865H1092.52C1090.31 128.865 1088.52 127.074 1088.52 124.865V79C1088.52 76.7909 1090.31 75 1092.52 75H1276.68C1278.89 75 1280.68 76.7909 1280.68 79V124.865Z" fill="url(#paint23_linear_32_315)" fill-opacity="0.8"/>
</g>
<defs>
<filter id="filter0_di_32_315" x="71.0001" y="71.0474" width="334.636" height="300.855" filterUnits="userSpaceOnUse" color-interpolation-filters="sRGB">
<feFlood flood-opacity="0" result="BackgroundImageFix"/>
<feColorMatrix in="SourceAlpha" type="matrix" values="0 0 0 0 0 0 0 0 0 0 0 0 0 0 0 0 0 0 127 0" result="hardAlpha"/>
<feOffset dx="4" dy="4"/>
<feGaussianBlur stdDeviation="4"/>
<feComposite in2="hardAlpha" operator="out"/>
<feColorMatrix type="matrix" values="0 0 0 0 0 0 0 0 0 0 0 0 0 0 0 0 0 0 0.2 0"/>
<feBlend mode="normal" in2="BackgroundImageFix" result="effect1_dropShadow_32_315"/>
<feBlend mode="normal" in="SourceGraphic" in2="effect1_dropShadow_32_315" result="shape"/>
<feColorMatrix in="SourceAlpha" type="matrix" values="0 0 0 0 0 0 0 0 0 0 0 0 0 0 0 0 0 0 127 0" result="hardAlpha"/>
<feOffset dx="4" dy="4"/>
<feGaussianBlur stdDeviation="4"/>
<feComposite in2="hardAlpha" operator="arithmetic" k2="-1" k3="1"/>
<feColorMatrix type="matrix" values="0 0 0 0 0.8 0 0 0 0 0.8 0 0 0 0 0.8 0 0 0 0.2 0"/>
<feBlend mode="normal" in2="shape" result="effect2_innerShadow_32_315"/>
</filter>
<filter id="filter1_f_32_315" x="0" y="0.0474243" width="468.636" height="434.855" filterUnits="userSpaceOnUse" color-interpolation-filters="sRGB">
<feFlood flood-opacity="0" result="BackgroundImageFix"/>
<feBlend mode="normal" in="SourceGraphic" in2="BackgroundImageFix" result="shape"/>
<feGaussianBlur stdDeviation="37.5" result="effect1_foregroundBlur_32_315"/>
</filter>
<filter id="filter2_di_32_315" x="433.505" y="71.2639" width="287.623" height="300.422" filterUnits="userSpaceOnUse" color-interpolation-filters="sRGB">
<feFlood flood-opacity="0" result="BackgroundImageFix"/>
<feColorMatrix in="SourceAlpha" type="matrix" values="0 0 0 0 0 0 0 0 0 0 0 0 0 0 0 0 0 0 127 0" result="hardAlpha"/>
<feOffset dx="4" dy="4"/>
<feGaussianBlur stdDeviation="4"/>
<feComposite in2="hardAlpha" operator="out"/>
<feColorMatrix type="matrix" values="0 0 0 0 0 0 0 0 0 0 0 0 0 0 0 0 0 0 0.2 0"/>
<feBlend mode="normal" in2="BackgroundImageFix" result="effect1_dropShadow_32_315"/>
<feBlend mode="normal" in="SourceGraphic" in2="effect1_dropShadow_32_315" result="shape"/>
<feColorMatrix in="SourceAlpha" type="matrix" values="0 0 0 0 0 0 0 0 0 0 0 0 0 0 0 0 0 0 127 0" result="hardAlpha"/>
<feOffset dx="4" dy="4"/>
<feGaussianBlur stdDeviation="4"/>
<feComposite in2="hardAlpha" operator="arithmetic" k2="-1" k3="1"/>
<feColorMatrix type="matrix" values="0 0 0 0 0.8 0 0 0 0 0.8 0 0 0 0 0.8 0 0 0 0.2 0"/>
<feBlend mode="normal" in2="shape" result="effect2_innerShadow_32_315"/>
</filter>
<filter id="filter3_f_32_315" x="362.505" y="0.263885" width="421.623" height="434.422" filterUnits="userSpaceOnUse" color-interpolation-filters="sRGB">
<feFlood flood-opacity="0" result="BackgroundImageFix"/>
<feBlend mode="normal" in="SourceGraphic" in2="BackgroundImageFix" result="shape"/>
<feGaussianBlur stdDeviation="37.5" result="effect1_foregroundBlur_32_315"/>
</filter>
<filter id="filter4_di_32_315" x="752.261" y="71.2268" width="300.92" height="300.496" filterUnits="userSpaceOnUse" color-interpolation-filters="sRGB">
<feFlood flood-opacity="0" result="BackgroundImageFix"/>
<feColorMatrix in="SourceAlpha" type="matrix" values="0 0 0 0 0 0 0 0 0 0 0 0 0 0 0 0 0 0 127 0" result="hardAlpha"/>
<feOffset dx="4" dy="4"/>
<feGaussianBlur stdDeviation="4"/>
<feComposite in2="hardAlpha" operator="out"/>
<feColorMatrix type="matrix" values="0 0 0 0 0 0 0 0 0 0 0 0 0 0 0 0 0 0 0.2 0"/>
<feBlend mode="normal" in2="BackgroundImageFix" result="effect1_dropShadow_32_315"/>
<feBlend mode="normal" in="SourceGraphic" in2="effect1_dropShadow_32_315" result="shape"/>
<feColorMatrix in="SourceAlpha" type="matrix" values="0 0 0 0 0 0 0 0 0 0 0 0 0 0 0 0 0 0 127 0" result="hardAlpha"/>
<feOffset dx="4" dy="4"/>
<feGaussianBlur stdDeviation="4"/>
<feComposite in2="hardAlpha" operator="arithmetic" k2="-1" k3="1"/>
<feColorMatrix type="matrix" values="0 0 0 0 0.8 0 0 0 0 0.8 0 0 0 0 0.8 0 0 0 0.2 0"/>
<feBlend mode="normal" in2="shape" result="effect2_innerShadow_32_315"/>
</filter>
<filter id="filter5_f_32_315" x="681.261" y="0.226807" width="434.92" height="434.496" filterUnits="userSpaceOnUse" color-interpolation-filters="sRGB">
<feFlood flood-opacity="0" result="BackgroundImageFix"/>
<feBlend mode="normal" in="SourceGraphic" in2="BackgroundImageFix" result="shape"/>
<feGaussianBlur stdDeviation="37.5" result="effect1_foregroundBlur_32_315"/>
</filter>
<filter id="filter6_di_32_315" x="1084.52" y="71" width="217.602" height="300.95" filterUnits="userSpaceOnUse" color-interpolation-filters="sRGB">
<feFlood flood-opacity="0" result="BackgroundImageFix"/>
<feColorMatrix in="SourceAlpha" type="matrix" values="0 0 0 0 0 0 0 0 0 0 0 0 0 0 0 0 0 0 127 0" result="hardAlpha"/>
<feOffset dx="4" dy="4"/>
<feGaussianBlur stdDeviation="4"/>
<feComposite in2="hardAlpha" operator="out"/>
<feColorMatrix type="matrix" values="0 0 0 0 0 0 0 0 0 0 0 0 0 0 0 0 0 0 0.2 0"/>
<feBlend mode="normal" in2="BackgroundImageFix" result="effect1_dropShadow_32_315"/>
<feBlend mode="normal" in="SourceGraphic" in2="effect1_dropShadow_32_315" result="shape"/>
<feColorMatrix in="SourceAlpha" type="matrix" values="0 0 0 0 0 0 0 0 0 0 0 0 0 0 0 0 0 0 127 0" result="hardAlpha"/>
<feOffset dx="4" dy="4"/>
<feGaussianBlur stdDeviation="4"/>
<feComposite in2="hardAlpha" operator="arithmetic" k2="-1" k3="1"/>
<feColorMatrix type="matrix" values="0 0 0 0 0.8 0 0 0 0 0.8 0 0 0 0 0.8 0 0 0 0.2 0"/>
<feBlend mode="normal" in2="shape" result="effect2_innerShadow_32_315"/>
</filter>
<filter id="filter7_f_32_315" x="1013.52" y="0" width="351.602" height="434.95" filterUnits="userSpaceOnUse" color-interpolation-filters="sRGB">
<feFlood flood-opacity="0" result="BackgroundImageFix"/>
<feBlend mode="normal" in="SourceGraphic" in2="BackgroundImageFix" result="shape"/>
<feGaussianBlur stdDeviation="37.5" result="effect1_foregroundBlur_32_315"/>
</filter>
<radialGradient id="paint0_radial_32_315" cx="0" cy="0" r="1" gradientTransform="matrix(494.681 11.0749 -16.7085 210.593 163.584 57.6613)" gradientUnits="userSpaceOnUse">
<stop stop-color="#8F93BC"/>
<stop offset="0.32983" stop-color="#656484"/>
<stop offset="0.80622" stop-color="#232329" stop-opacity="0.08"/>
<stop offset="1" stop-color="#131217" stop-opacity="0"/>
</radialGradient>
<linearGradient id="paint1_linear_32_315" x1="18.7525" y1="13.8638" x2="178.582" y2="296.971" gradientUnits="userSpaceOnUse">
<stop stop-color="white"/>
<stop offset="1" stop-color="#5D4EF1" stop-opacity="0.2"/>
</linearGradient>
<linearGradient id="paint2_linear_32_315" x1="361.164" y1="-76.4072" x2="790.168" y2="851.142" gradientUnits="userSpaceOnUse">
<stop stop-color="#5D4EF1"/>
<stop offset="1" stop-color="#FF8C23"/>
</linearGradient>
<linearGradient id="paint3_linear_32_315" x1="361.164" y1="-76.4072" x2="790.167" y2="851.142" gradientUnits="userSpaceOnUse">
<stop stop-color="#5D4EF1"/>
<stop offset="1" stop-color="#FF8C23"/>
</linearGradient>
<radialGradient id="paint4_radial_32_315" cx="0" cy="0" r="1" gradientTransform="matrix(422.945 11.0749 -14.2855 210.593 512.841 57.6613)" gradientUnits="userSpaceOnUse">
<stop stop-color="#8F93BC"/>
<stop offset="0.32983" stop-color="#656484"/>
<stop offset="0.80622" stop-color="#232329" stop-opacity="0.08"/>
<stop offset="1" stop-color="#131217" stop-opacity="0"/>
</radialGradient>
<linearGradient id="paint5_linear_32_315" x1="389.787" y1="14.1732" x2="561.376" y2="273.336" gradientUnits="userSpaceOnUse">
<stop stop-color="white"/>
<stop offset="1" stop-color="#5D4EF1" stop-opacity="0.2"/>
</linearGradient>
<linearGradient id="paint6_linear_32_315" x1="291.634" y1="-75.9606" x2="756.5" y2="802.218" gradientUnits="userSpaceOnUse">
<stop stop-color="#5D4EF1"/>
<stop offset="1" stop-color="#FF8C23"/>
</linearGradient>
<linearGradient id="paint7_linear_32_315" x1="291.634" y1="-75.9606" x2="756.5" y2="802.218" gradientUnits="userSpaceOnUse">
<stop stop-color="#5D4EF1"/>
<stop offset="1" stop-color="#FF8C23"/>
</linearGradient>
<radialGradient id="paint8_radial_32_315" cx="0" cy="0" r="1" gradientTransform="matrix(454.329 11.0749 -15.3456 210.593 833.853 57.6613)" gradientUnits="userSpaceOnUse">
<stop stop-color="#8F93BC"/>
<stop offset="0.32983" stop-color="#656484"/>
<stop offset="0.80622" stop-color="#232329" stop-opacity="0.08"/>
<stop offset="1" stop-color="#131217" stop-opacity="0"/>
</radialGradient>
<linearGradient id="paint9_linear_32_315" x1="704.1" y1="14.1202" x2="871.611" y2="282.396" gradientUnits="userSpaceOnUse">
<stop stop-color="white"/>
<stop offset="1" stop-color="#5D4EF1" stop-opacity="0.2"/>
</linearGradient>
<linearGradient id="paint10_linear_32_315" x1="194.136" y1="-76.037" x2="650.08" y2="815.28" gradientUnits="userSpaceOnUse">
<stop stop-color="#5D4EF1"/>
<stop offset="1" stop-color="#FF8C23"/>
</linearGradient>
<linearGradient id="paint11_linear_32_315" x1="194.136" y1="-76.037" x2="650.08" y2="815.28" gradientUnits="userSpaceOnUse">
<stop stop-color="#5D4EF1"/>
<stop offset="1" stop-color="#FF8C23"/>
</linearGradient>
<radialGradient id="paint12_radial_32_315" cx="0" cy="0" r="1" gradientTransform="matrix(318.33 11.0749 -10.752 210.593 1143.8 57.6613)" gradientUnits="userSpaceOnUse">
<stop stop-color="#8F93BC"/>
<stop offset="0.32983" stop-color="#656484"/>
<stop offset="0.80622" stop-color="#232329" stop-opacity="0.08"/>
<stop offset="1" stop-color="#131217" stop-opacity="0"/>
</radialGradient>
<radialGradient id="paint13_radial_32_315" cx="0" cy="0" r="1" gradientTransform="matrix(318.33 11.0749 -10.752 210.593 1143.8 57.6613)" gradientUnits="userSpaceOnUse">
<stop stop-color="#8F93BC"/>
<stop offset="0.32983" stop-color="#656484"/>
<stop offset="0.80622" stop-color="#232329" stop-opacity="0.08"/>
<stop offset="1" stop-color="#131217" stop-opacity="0"/>
</radialGradient>
<radialGradient id="paint14_radial_32_315" cx="0" cy="0" r="1" gradientTransform="matrix(318.33 11.0749 -10.752 210.593 1143.8 57.6613)" gradientUnits="userSpaceOnUse">
<stop stop-color="#8F93BC"/>
<stop offset="0.32983" stop-color="#656484"/>
<stop offset="0.80622" stop-color="#232329" stop-opacity="0.08"/>
<stop offset="1" stop-color="#131217" stop-opacity="0"/>
</radialGradient>
<linearGradient id="paint15_linear_32_315" x1="1053.1" y1="13.796" x2="1238.66" y2="221.423" gradientUnits="userSpaceOnUse">
<stop stop-color="white"/>
<stop offset="1" stop-color="#5D4EF1" stop-opacity="0.2"/>
</linearGradient>
<linearGradient id="paint16_linear_32_315" x1="1053.1" y1="13.796" x2="1238.66" y2="221.423" gradientUnits="userSpaceOnUse">
<stop stop-color="white"/>
<stop offset="1" stop-color="#5D4EF1" stop-opacity="0.2"/>
</linearGradient>
<linearGradient id="paint17_linear_32_315" x1="1053.1" y1="13.796" x2="1238.66" y2="221.423" gradientUnits="userSpaceOnUse">
<stop stop-color="white"/>
<stop offset="1" stop-color="#5D4EF1" stop-opacity="0.2"/>
</linearGradient>
<linearGradient id="paint18_linear_32_315" x1="401.348" y1="-76.5051" x2="936.224" y2="662.933" gradientUnits="userSpaceOnUse">
<stop stop-color="#5D4EF1"/>
<stop offset="1" stop-color="#FF8C23"/>
</linearGradient>
<linearGradient id="paint19_linear_32_315" x1="401.348" y1="-76.5051" x2="936.224" y2="662.933" gradientUnits="userSpaceOnUse">
<stop stop-color="#5D4EF1"/>
<stop offset="1" stop-color="#FF8C23"/>
</linearGradient>
<linearGradient id="paint20_linear_32_315" x1="401.348" y1="-76.5051" x2="936.224" y2="662.933" gradientUnits="userSpaceOnUse">
<stop stop-color="#5D4EF1"/>
<stop offset="1" stop-color="#FF8C23"/>
</linearGradient>
<linearGradient id="paint21_linear_32_315" x1="401.348" y1="-76.5051" x2="936.224" y2="662.933" gradientUnits="userSpaceOnUse">
<stop stop-color="#5D4EF1"/>
<stop offset="1" stop-color="#FF8C23"/>
</linearGradient>
<linearGradient id="paint22_linear_32_315" x1="401.348" y1="-76.5051" x2="936.224" y2="662.933" gradientUnits="userSpaceOnUse">
<stop stop-color="#5D4EF1"/>
<stop offset="1" stop-color="#FF8C23"/>
</linearGradient>
<linearGradient id="paint23_linear_32_315" x1="401.348" y1="-76.5051" x2="936.224" y2="662.933" gradientUnits="userSpaceOnUse">
<stop stop-color="#5D4EF1"/>
<stop offset="1" stop-color="#FF8C23"/>
</linearGradient>
</defs>
</svg>
